<?xml version="1.0" encoding="UTF-8" standalone="no"?>
<!-- Created with Inkscape (http://www.inkscape.org/) -->

<svg
   width="200mm"
   height="200mm"
   viewBox="0 0 200 200"
   version="1.1"
   id="svg1"
   inkscape:version="1.3.2 (091e20e, 2023-11-25, custom)"
   sodipodi:docname="ag-favicon.svg"
   xmlns:inkscape="http://www.inkscape.org/namespaces/inkscape"
   xmlns:sodipodi="http://sodipodi.sourceforge.net/DTD/sodipodi-0.dtd"
   xmlns="http://www.w3.org/2000/svg"
   xmlns:svg="http://www.w3.org/2000/svg">
  <sodipodi:namedview
     id="namedview1"
     pagecolor="#505050"
     bordercolor="#ffffff"
     borderopacity="1"
     inkscape:showpageshadow="0"
     inkscape:pageopacity="0"
     inkscape:pagecheckerboard="1"
     inkscape:deskcolor="#505050"
     inkscape:document-units="mm"
     showguides="true"
     inkscape:zoom="1.4463151"
     inkscape:cx="272.07073"
     inkscape:cy="417.2673"
     inkscape:window-width="2560"
     inkscape:window-height="1361"
     inkscape:window-x="-9"
     inkscape:window-y="-9"
     inkscape:window-maximized="1"
     inkscape:current-layer="g9">
    <sodipodi:guide
       position="19.940042,57.309793"
       orientation="0,-1"
       id="guide8"
       inkscape:locked="false" />
  </sodipodi:namedview>
  <defs
     id="defs1" />
  <g
     inkscape:label="Square"
     inkscape:groupmode="layer"
     id="layer1"
     sodipodi:insensitive="true">
    <rect
       style="fill:#333333;stroke-width:0.456788"
       id="rect1"
       width="200"
       height="200"
       x="0"
       y="0"
       ry="44.378067" />
  </g>
  <g
     inkscape:groupmode="layer"
     id="layer2"
     inkscape:label="Letters">
    <g
       id="g8"
       transform="translate(-13.085814,11.641829)">
      <g
         id="g9"
         transform="translate(4.7766113e-7,-1.097617)">
        <g
           id="g11"
           transform="translate(1.6464233)"
           style="fill:#e3be57;fill-opacity:1">
          <rect
             style="fill:#e3be57;stroke-width:0.245618;fill-opacity:1"
             id="rect5-0-8"
             width="34"
             height="13"
             x="-94.214699"
             y="-57.636555"
             ry="4.6799863e-07"
             transform="rotate(180,-2.8570556e-7,0.54880856)" />
          <path
             d="m 141.46252,45.734153 a 34.810822,42.624126 0 0 0 -34.81052,42.623755 34.810822,42.624126 0 0 0 34.81052,42.624282 34.810822,42.624126 0 0 0 29.57767,-20.39721 h -14.7633 a 23.456219,28.720978 0 0 1 -14.81437,6.49418 23.456219,28.720978 0 0 1 -23.45601,-28.721252 23.456219,28.720978 0 0 1 23.45601,-28.720727 23.456219,28.720978 0 0 1 14.17498,5.853906 h 15.19378 A 34.810822,42.624126 0 0 0 141.46252,45.734153 Z"
             style="fill:#e3be57;stroke-width:0.239106;fill-opacity:1"
             id="path5" />
          <rect
             style="fill:#e3be57;stroke-width:0.296766;fill-opacity:1"
             id="rect5"
             width="49.634892"
             height="13"
             x="139.02919"
             y="82.224045"
             ry="4.6799863e-07" />
          <rect
             style="fill:#e3be57;stroke-width:0.295122;fill-opacity:1"
             id="rect5-2"
             width="49.086082"
             height="13"
             x="-131.31012"
             y="175.66408"
             ry="4.6799866e-07"
             transform="rotate(-90)" />
          <rect
             style="fill:#e3be57;stroke-width:0.388923;fill-opacity:1"
             id="rect5-0"
             width="85.248001"
             height="13"
             x="45.734173"
             y="-47.214699"
             ry="4.6799863e-07"
             transform="rotate(90)" />
          <rect
             style="fill:#e3be57;stroke-width:0.245618;fill-opacity:1"
             id="rect5-0-8-0"
             width="34"
             height="13"
             x="-68.214699"
             y="-94.85817"
             ry="4.6799863e-07"
             transform="scale(-1)" />
          <g
             id="g10"
             style="fill:#e3be57;fill-opacity:1">
            <rect
               style="fill:#e3be57;stroke-width:0.388923;fill-opacity:1"
               id="rect5-0-2"
               width="85.248001"
               height="13"
               x="45.734173"
               y="-94.214699"
               ry="4.6799863e-07"
               transform="rotate(90)" />
          </g>
        </g>
      </g>
      <rect
         style="fill:#ffff00;stroke-width:0.264583"
         id="rect8"
         width="0.91468078"
         height="0.18293616"
         x="230.59691"
         y="104.70557"
         ry="4.6799866e-07" />
    </g>
  </g>
</svg>
